{"title":"National.Lampoons.The.Legend.Of.Awesomest.Maximus.2011.BRRip.Ac3","uid":7092898,"size":1563706532,"categoryP":"video","categoryS":"movies","magnet":"?xt=urn:btih:672fce84117b5eb3b91b47463578aab51c0cee51&amp;dn=National.Lampoons.The.Legend.Of.Awesomest.Maximus.2011.BRRip.Ac3&amp;tr=udp%3A%2F%2Ftracker.openbittorrent.com%3A80&amp;tr=udp%3A%2F%2Fopen.demonii.com%3A1337&amp;tr=udp%3A%2F%2Ftracker.coppersurfer.tk%3A6969&amp;tr=udp%3A%2F%2Fexodus.desync.com%3A6969","seeders":0,"leechers":3,"uploader":"maximersk","files":10,"time":1331431783,"description":"National.Lampoons.The.Legend.Of.Awesomest.Maximus.2011.BRRip.Ac3.XviD-ANALOG\n\n\n\n\n\n\n\nComplete name : C:UsersootDesktopNational.Lampoons.The.Legend.Of.Awesomest.Maximus.2011.BRRip.Ac3.Xvid.ANALOGN.L.T.L.O.A.M.BRR.ANALOG.avi\nFormat : AVI\nFormat/Info : Audio Video Interleave\nFile size : 1.45 GiB\nDuration : 1h 30mn\nOverall bit rate : 2 278 Kbps\nMovie name : N.L.T.L.O.A.M.BRR.ANALOG\nWriting application : VirtualDub build 32842/release\nCopyright : ANALOG\n\nVideo\nID : 0\nFormat : MPEG-4 Visual\nFormat profile : Advanced Simple@L5\nFormat settings, BVOP : 1\nFormat settings, QPel : No\nFormat settings, GMC : No warppoints\nFormat settings, Matrix : Default (H.263)\nMuxing mode : Packed bitstream\nCodec ID : XVID\nCodec ID/Hint : XviD\nDuration : 1h 30mn\nBit rate : 1 885 Kbps\nWidth : 720 pixels\nHeight : 400 pixels\nDisplay aspect ratio : 16:9\nFrame rate : 23.976 fps\nColor space : YUV\nChroma subsampling : 4:2:0\nBit depth : 8 bits\nScan type : Progressive\nCompression mode : Lossy\nBits/(Pixel*Frame) : 0.273\nStream size : 1.20 GiB (83%)\nWriting library : XviD 64\n\nAudio\nID : 1\nFormat : AC-3\nFormat/Info : Audio Coding 3\nMode extension : CM (complete main)\nCodec ID : 2000\nDuration : 1h 30mn\nBit rate mode : Constant\nBit rate : 384 Kbps\nChannel(s) : 6 channels\nChannel positions : Front: L C R, Side: L R, LFE\nSampling rate : 48.0 KHz\nBit depth : 16 bits\nCompression mode : Lossy\nStream size : 250 MiB (17%)\nAlignment : Aligned on interleaves\nInterleave, duration : 42 ms (1.00 video frame)\nInterleave, preload duration : 512 ms\nLanguage : English\nSample : Yes\nSource : LEVERAGE 720p THANX\nAs humans, we perceive the world in analog. Everything we see and hear is a continuous transmission of information to our senses.\n&lt;a class=&quot;__cf_email__&quot; href=&quot;/cdn-cgi/l/email-protection&quot; data-cfemail=&quot;0d6c636c61626a237d233f237d4d65787e65606c6461236e6260&quot;&gt;[email&amp;#160;protected]&lt;/a&gt;&lt;script cf-hash='f9e31' type=&quot;text/javascript&quot;&gt;\n/* &lt;![CDATA[ */!function(){try{var t=&quot;currentScript&quot;in document?document.currentScript:function(){for(var t=document.getElementsByTagName(&quot;script&quot;),e=t.length;e--;)if(t[e].getAttribute(&quot;cf-hash&quot;))return t[e]}();if(t&amp;&amp;t.previousSibling){var e,r,n,i,c=t.previousSibling,a=c.getAttribute(&quot;data-cfemail&quot;);if(a){for(e=&quot;&quot;,r=parseInt(a.substr(0,2),16),n=2;a.length-n;n+=2)i=parseInt(a.substr(n,2),16)^r,e+=String.fromCharCode(i);e=document.createTextNode(e),c.parentNode.replaceChild(e,c)}}}catch(u){}}();/* ]]&gt; */&lt;/script&gt;\nGREATINGS TO ALL THE PLACES I LURK!!\n","torrent":{"xt":"urn:btih:672fce84117b5eb3b91b47463578aab51c0cee51","amp;dn":"National.Lampoons.The.Legend.Of.Awesomest.Maximus.2011.BRRip.Ac3","amp;tr":["udp%3A%2F%2Ftracker.openbittorrent.com%3A80","udp%3A%2F%2Fopen.demonii.com%3A1337","udp%3A%2F%2Ftracker.coppersurfer.tk%3A6969","udp%3A%2F%2Fexodus.desync.com%3A6969"],"infoHash":"672fce84117b5eb3b91b47463578aab51c0cee51","infoHashBuffer":{"type":"Buffer","data":[103,47,206,132,17,123,94,179,185,27,71,70,53,120,170,181,28,12,238,81]},"announce":[],"urlList":[]}}